<svg xmlns="http://www.w3.org/2000/svg" viewBox="0 0 15 13" shape-rendering="crispEdges">
<rect width="100%" height="100%" fill="none"/>
<rect x="7" y="6" width="1" height="1" fill="#ffff00"/>
<rect x="7" y="7" width="1" height="1" fill="#ffff00"/>
<rect x="6" y="8" width="1" height="1" fill="#ffff00"/>
<rect x="7" y="8" width="1" height="1" fill="#ffff00"/>
<rect x="8" y="8" width="1" height="1" fill="#ffff00"/>
<rect x="6" y="9" width="1" height="1" fill="#ffff00"/>
<rect x="7" y="9" width="1" height="1" fill="#ffff00"/>
<rect x="8" y="9" width="1" height="1" fill="#ffff00"/>
<rect x="6" y="10" width="1" height="1" fill="#ffff00"/>
<rect x="7" y="10" width="1" height="1" fill="#ffff00"/>
<rect x="8" y="10" width="1" height="1" fill="#ffff00"/>
<rect x="5" y="11" width="1" height="1" fill="#ffff00"/>
<rect x="6" y="11" width="1" height="1" fill="#ffff00"/>
<rect x="7" y="11" width="1" height="1" fill="#ffff00"/>
<rect x="8" y="11" width="1" height="1" fill="#ffff00"/>
<rect x="9" y="11" width="1" height="1" fill="#ffff00"/>
<rect x="6" y="12" width="1" height="1" fill="#ffff00"/>
<rect x="8" y="12" width="1" height="1" fill="#ffff00"/>
</svg>